<svg xmlns="http://www.w3.org/2000/svg" width="1280" height="720" viewBox="0 0 1280 720">
<defs>
  <linearGradient id="sky" x1="0" y1="0" x2="0" y2="1"><stop stop-color="#77c9f6"/><stop offset="1" stop-color="#dff5ff"/></linearGradient>
  <linearGradient id="grass" x1="0" y1="0" x2="0" y2="1"><stop stop-color="#95d86b"/><stop offset="1" stop-color="#4ea44d"/></linearGradient>
  <linearGradient id="water" x1="0" y1="0" x2="1" y2="1"><stop stop-color="#59c8e8"/><stop offset="1" stop-color="#187aa9"/></linearGradient>
  <filter id="shadow"><feDropShadow dx="0" dy="6" stdDeviation="6" flood-opacity=".25"/></filter>
</defs>
<rect width="1280" height="720" fill="url(#sky)"/>
<circle cx="1120" cy="95" r="52" fill="#ffe38a"/>
<g fill="#fff" opacity=".85">
  <ellipse cx="190" cy="100" rx="90" ry="32"/><ellipse cx="250" cy="92" rx="62" ry="26"/>
  <ellipse cx="845" cy="125" rx="80" ry="28"/><ellipse cx="900" cy="118" rx="55" ry="23"/>
</g>
<path d="M0 330 C170 210 280 260 410 330 C560 180 730 190 860 330 C1000 210 1140 240 1280 330 L1280 720 L0 720 Z" fill="#6d9f59"/>
<path d="M0 380 C180 290 300 330 430 390 C620 280 760 300 930 395 C1080 310 1180 340 1280 390 L1280 720 L0 720 Z" fill="url(#grass)"/>
<path d="M520 360 C690 390 720 470 640 530 C570 580 610 650 740 720 L1030 720 C900 650 850 560 930 490 C1010 420 920 365 790 350 Z" fill="url(#water)" opacity=".95"/>
<path d="M75 565 C260 490 360 510 520 575" fill="none" stroke="#d9c28a" stroke-width="48" stroke-linecap="round"/>
<path d="M75 565 C260 490 360 510 520 575" fill="none" stroke="#f1dfaf" stroke-width="28" stroke-linecap="round"/>

<!-- school -->
<g transform="translate(135 285)" filter="url(#shadow)">
  <rect x="0" y="70" width="210" height="150" rx="12" fill="#f6d79a"/>
  <polygon points="-20,75 105,0 230,75" fill="#c95442"/>
  <rect x="84" y="125" width="46" height="95" fill="#7b4d36"/>
  <rect x="25" y="105" width="45" height="45" fill="#86d5ff"/>
  <rect x="145" y="105" width="45" height="45" fill="#86d5ff"/>
  <circle cx="105" cy="66" r="22" fill="#fff4c5"/><path d="M105 66 L105 51 M105 66 L118 72" stroke="#4a4a4a" stroke-width="4"/>
</g>

<!-- zoo -->
<g transform="translate(835 360)" filter="url(#shadow)">
  <rect x="0" y="65" width="230" height="145" rx="14" fill="#d8b56b"/>
  <polygon points="-15,70 115,5 245,70" fill="#8a5e32"/>
  <rect x="82" y="112" width="66" height="98" rx="10" fill="#5d3f27"/>
  <rect x="18" y="105" width="45" height="45" fill="#8ed6ff"/>
  <rect x="168" y="105" width="45" height="45" fill="#8ed6ff"/>
  <text x="115" y="53" text-anchor="middle" font-size="30" font-family="sans-serif" font-weight="700" fill="#fff">ΖΩΑ</text>
</g>

<!-- library -->
<g transform="translate(380 245)" filter="url(#shadow)">
  <rect x="0" y="55" width="185" height="130" rx="10" fill="#edc687"/>
  <polygon points="-12,58 92,0 197,58" fill="#8f4d3b"/>
  <rect x="70" y="96" width="45" height="89" fill="#6e4430"/>
  <rect x="18" y="88" width="36" height="40" fill="#86d5ff"/>
  <rect x="130" y="88" width="36" height="40" fill="#86d5ff"/>
</g>

<!-- music -->
<g transform="translate(980 170)" filter="url(#shadow)">
  <rect x="0" y="65" width="170" height="125" rx="12" fill="#f0b7c8"/>
  <polygon points="-12,68 85,5 182,68" fill="#9a4e83"/>
  <rect x="63" y="112" width="44" height="78" fill="#734366"/>
  <text x="85" y="105" text-anchor="middle" font-size="36" font-family="sans-serif" fill="#fff">♫</text>
</g>

<!-- art -->
<g transform="translate(60 110)" filter="url(#shadow)">
  <rect x="0" y="62" width="165" height="120" rx="12" fill="#e9d6a2"/>
  <polygon points="-10,65 82,10 175,65" fill="#cf754f"/>
  <rect x="58" y="110" width="48" height="72" fill="#8d5a3e"/>
  <circle cx="132" cy="118" r="22" fill="#ffdf70"/><circle cx="122" cy="110" r="4" fill="#ef5a5a"/><circle cx="140" cy="110" r="4" fill="#5b8cff"/><circle cx="130" cy="128" r="4" fill="#55bc73"/>
</g>

<!-- puzzle park -->
<g transform="translate(600 165)" filter="url(#shadow)">
  <rect x="0" y="78" width="185" height="115" rx="15" fill="#74bd75"/>
  <polygon points="-15,80 92,5 200,80" fill="#4d8c53"/>
  <rect x="65" y="120" width="55" height="73" fill="#5f503e"/>
  <text x="92" y="114" text-anchor="middle" font-size="42" font-family="sans-serif" fill="#fff">🧩</text>
</g>

<!-- trees -->
<g fill="#3e8f48" stroke="#2f6d38" stroke-width="4">
  <circle cx="60" cy="390" r="38"/><circle cx="1120" cy="520" r="42"/><circle cx="760" cy="570" r="34"/>
  <circle cx="340" cy="620" r="38"/><circle cx="1180" cy="300" r="32"/>
</g>
<g fill="#8b5a36"><rect x="53" y="390" width="14" height="55"/><rect x="1113" y="520" width="15" height="60"/><rect x="753" y="570" width="14" height="52"/><rect x="333" y="620" width="14" height="55"/><rect x="1174" y="300" width="13" height="50"/></g>

<!-- fox -->
<g transform="translate(585 500)" filter="url(#shadow)">
  <ellipse cx="0" cy="42" rx="38" ry="50" fill="#d36f2c"/>
  <circle cx="0" cy="0" r="42" fill="#e58235"/>
  <polygon points="-32,-20 -18,-62 -2,-25" fill="#d36f2c"/><polygon points="32,-20 18,-62 2,-25" fill="#d36f2c"/>
  <ellipse cx="0" cy="16" rx="25" ry="18" fill="#fff0d7"/>
  <circle cx="-13" cy="-5" r="4" fill="#1f2530"/><circle cx="13" cy="-5" r="4" fill="#1f2530"/><circle cx="0" cy="12" r="5" fill="#1f2530"/>
  <path d="M-9 22 Q0 30 9 22" fill="none" stroke="#1f2530" stroke-width="3"/>
</g>
</svg>